<svg xmlns="http://www.w3.org/2000/svg" viewBox="0 0 400 260" width="400" height="260">
  <rect x="0" y="0" width="400" height="260" rx="12" fill="#0f172a"/>

  <text x="200" y="34" font-family="Arial, sans-serif" font-size="22" font-weight="bold" fill="#ffffff" text-anchor="middle">Líder Técnico</text>

  <line x1="200" y1="112" x2="90" y2="185" stroke="#475569" stroke-width="2"/>
  <line x1="200" y1="112" x2="200" y2="177" stroke="#475569" stroke-width="2"/>
  <line x1="200" y1="112" x2="310" y2="185" stroke="#475569" stroke-width="2"/>

  <circle cx="200" cy="80" r="34" fill="#38bdf8"/>
  <text x="200" y="88" font-family="Consolas, monospace" font-size="18" font-weight="bold" fill="#0f172a" text-anchor="middle">&lt;/&gt;</text>

  <g>
    <circle cx="90" cy="205" r="27" fill="#1e293b" stroke="#64748b" stroke-width="1.5"/>
    <circle cx="90" cy="197" r="6" fill="#a78bfa"/>
    <path d="M 79 214 A 11 11 0 0 1 101 214 Z" fill="#a78bfa"/>
  </g>

  <g>
    <circle cx="200" cy="205" r="27" fill="#1e293b" stroke="#64748b" stroke-width="1.5"/>
    <circle cx="200" cy="197" r="6" fill="#34d399"/>
    <path d="M 189 214 A 11 11 0 0 1 211 214 Z" fill="#34d399"/>
  </g>

  <g>
    <circle cx="310" cy="205" r="27" fill="#1e293b" stroke="#64748b" stroke-width="1.5"/>
    <circle cx="310" cy="197" r="6" fill="#fbbf24"/>
    <path d="M 299 214 A 11 11 0 0 1 321 214 Z" fill="#fbbf24"/>
  </g>

  <text x="200" y="248" font-family="Arial, sans-serif" font-size="13" fill="#cbd5e1" text-anchor="middle">Guiando al equipo, sin dejar de programar</text>
</svg>